<?xml version="1.0" encoding="UTF-8"?>
<svg version="1.1" xmlns="http://www.w3.org/2000/svg" width="81" height="58">
<path d="M0 0 C26.73 0 53.46 0 81 0 C81 19.14 81 38.28 81 58 C54.27 58 27.54 58 0 58 C0 38.86 0 19.72 0 0 Z " fill="#2a2a2a" transform="translate(0,0)"/>
<path d="M0 0 C8 1 8 1 15 3 C15 12.57 15 22.14 15 32 C5 30 5 30 0 28 C0 18.76 0 9.52 0 0 Z " fill="#00ff00" transform="translate(34,12)"/>
<path d="M0 0 C0 9.57 0 19.14 0 29 C-8 32 -8 32 -12 32 C-12 22.76 -12 13.52 -12 4 C-3 0 -3 0 0 0 Z " fill="#00ff00" transform="translate(32,12)"/>
<path d="M0 0 C0 8.91 0 17.82 0 27 C-10 32 -10 32 -12 32 C-12 22.43 -12 12.86 -12 3 C-3 -1 -3 -1 0 0 Z " fill="#00ff00" transform="translate(63,12)"/>
</svg>
